HIERARCHY
ROOT Hips
{
	OFFSET -14.64140 90.27770 -84.91600
	CHANNELS 6 Xposition Yposition Zposition Zrotation Xrotation Yrotation
	JOINT Spine
	{
		OFFSET 0.00000 13.20850 -1.60436
		CHANNELS 3 Zrotation Xrotation Yrotation
		JOINT Spine1
		{
			OFFSET 0.00000 8.61716 0.00000
			CHANNELS 3 Zrotation Xrotation Yrotation
			JOINT Spine2
			{
				OFFSET 0.00000 8.61717 0.00000
				CHANNELS 3 Zrotation Xrotation Yrotation
				JOINT Spine3
				{
					OFFSET 0.00000 8.61717 0.00000
					CHANNELS 3 Zrotation Xrotation Yrotation
					JOINT Neck
					{
						OFFSET 0.00000 11.07920 1.10792
						CHANNELS 3 Zrotation Xrotation Yrotation
						JOINT Neck1
						{
							OFFSET 0.00000 7.08032 0.00000
							CHANNELS 3 Zrotation Xrotation Yrotation
							JOINT Head
							{
								OFFSET 0.00000 7.08031 0.00000
								CHANNELS 3 Zrotation Xrotation Yrotation
								End site
								{
									OFFSET 0.00000 0.00000 0.00000
								}
							}
						}
					}
					JOINT RightShoulder
					{
						OFFSET -0.01000 7.91373 5.19711
						CHANNELS 3 Zrotation Xrotation Yrotation
						JOINT RightArm
						{
							OFFSET -18.41580 0.00000 0.00000
							CHANNELS 3 Zrotation Xrotation Yrotation
							JOINT RightForeArm
							{
								OFFSET -29.11090 0.00000 0.00000
								CHANNELS 3 Zrotation Xrotation Yrotation
								JOINT RightHand
								{
									OFFSET -24.65040 0.00000 0.00000
									CHANNELS 3 Zrotation Xrotation Yrotation
									JOINT RightHandThumb1
									{
										OFFSET -5.35114 -0.85590 3.97906
										CHANNELS 3 Zrotation Xrotation Yrotation
										JOINT RightHandThumb2
										{
											OFFSET -4.52789 0.00000 0.00000
											CHANNELS 3 Zrotation Xrotation Yrotation
											JOINT RightHandThumb3
											{
												OFFSET -2.46976 0.00000 0.00000
												CHANNELS 3 Zrotation Xrotation Yrotation
												End site
												{
													OFFSET 0.00000 0.00000 0.00000
												}
											}
										}
									}
									JOINT RightHandIndex1
									{
										OFFSET -14.26970 0.00000 2.88139
										CHANNELS 3 Zrotation Xrotation Yrotation
										JOINT RightHandIndex2
										{
											OFFSET -5.48836 0.00000 0.00000
											CHANNELS 3 Zrotation Xrotation Yrotation
											JOINT RightHandIndex3
											{
												OFFSET -3.01859 0.00000 0.00000
												CHANNELS 3 Zrotation Xrotation Yrotation
												End site
												{
													OFFSET 0.00000 0.00000 0.00000
												}
											}
										}
									}
									JOINT RightHandMiddle1
									{
										OFFSET -14.26970 0.00000 -0.09147
										CHANNELS 3 Zrotation Xrotation Yrotation
										JOINT RightHandMiddle2
										{
											OFFSET -6.17441 0.00000 0.00000
											CHANNELS 3 Zrotation Xrotation Yrotation
											JOINT RightHandMiddle3
											{
												OFFSET -3.56743 0.00000 0.00000
												CHANNELS 3 Zrotation Xrotation Yrotation
												End site
												{
													OFFSET 0.00000 0.00000 0.00000
												}
											}
										}
									}
									JOINT RightHandRing1
									{
										OFFSET -12.69180 0.00000 -3.06433
										CHANNELS 3 Zrotation Xrotation Yrotation
										JOINT RightHandRing2
										{
											OFFSET -5.62556 0.00000 0.00000
											CHANNELS 3 Zrotation Xrotation Yrotation
											JOINT RightHandRing3
											{
												OFFSET -3.56744 0.00000 0.00000
												CHANNELS 3 Zrotation Xrotation Yrotation
												End site
												{
													OFFSET 0.00000 0.00000 0.00000
												}
											}
										}
									}
									JOINT RightHandPinky1
									{
										OFFSET -11.11390 0.00000 -6.03719
										CHANNELS 3 Zrotation Xrotation Yrotation
										JOINT RightHandPinky2
										{
											OFFSET -4.52789 0.00000 0.00000
											CHANNELS 3 Zrotation Xrotation Yrotation
											JOINT RightHandPinky3
											{
												OFFSET -2.46976 0.00000 0.00000
												CHANNELS 3 Zrotation Xrotation Yrotation
												End site
												{
													OFFSET 0.00000 0.00000 0.00000
												}
											}
										}
									}
								}
							}
						}
					}
					JOINT LeftShoulder
					{
						OFFSET 0.01000 7.91373 5.19711
						CHANNELS 3 Zrotation Xrotation Yrotation
						JOINT LeftArm
						{
							OFFSET 18.41580 0.00000 0.00000
							CHANNELS 3 Zrotation Xrotation Yrotation
							JOINT LeftForeArm
							{
								OFFSET 29.11090 0.00000 0.00000
								CHANNELS 3 Zrotation Xrotation Yrotation
								JOINT LeftHand
								{
									OFFSET 24.65040 0.00000 0.00000
									CHANNELS 3 Zrotation Xrotation Yrotation
									JOINT LeftHandThumb1
									{
										OFFSET 5.35114 -0.85590 3.97906
										CHANNELS 3 Zrotation Xrotation Yrotation
										JOINT LeftHandThumb2
										{
											OFFSET 4.52789 0.00000 0.00000
											CHANNELS 3 Zrotation Xrotation Yrotation
											JOINT LeftHandThumb3
											{
												OFFSET 2.46977 0.00000 0.00000
												CHANNELS 3 Zrotation Xrotation Yrotation
												End site
												{
													OFFSET 0.00000 0.00000 0.00000
												}
											}
										}
									}
									JOINT LeftHandIndex1
									{
										OFFSET 14.26970 0.00000 2.88139
										CHANNELS 3 Zrotation Xrotation Yrotation
										JOINT LeftHandIndex2
										{
											OFFSET 5.48836 0.00000 0.00000
											CHANNELS 3 Zrotation Xrotation Yrotation
											JOINT LeftHandIndex3
											{
												OFFSET 3.01859 0.00000 0.00000
												CHANNELS 3 Zrotation Xrotation Yrotation
												End site
												{
													OFFSET 0.00000 0.00000 0.00000
												}
											}
										}
									}
									JOINT LeftHandMiddle1
									{
										OFFSET 14.26970 0.00000 -0.09147
										CHANNELS 3 Zrotation Xrotation Yrotation
										JOINT LeftHandMiddle2
										{
											OFFSET 6.17440 0.00000 0.00000
											CHANNELS 3 Zrotation Xrotation Yrotation
											JOINT LeftHandMiddle3
											{
												OFFSET 3.56744 0.00000 0.00000
												CHANNELS 3 Zrotation Xrotation Yrotation
												End site
												{
													OFFSET 0.00000 0.00000 0.00000
												}
											}
										}
									}
									JOINT LeftHandRing1
									{
										OFFSET 12.69180 0.00000 -3.06433
										CHANNELS 3 Zrotation Xrotation Yrotation
										JOINT LeftHandRing2
										{
											OFFSET 5.62556 0.00000 0.00000
											CHANNELS 3 Zrotation Xrotation Yrotation
											JOINT LeftHandRing3
											{
												OFFSET 3.56744 0.00000 0.00000
												CHANNELS 3 Zrotation Xrotation Yrotation
												End site
												{
													OFFSET 0.00000 0.00000 0.00000
												}
											}
										}
									}
									JOINT LeftHandPinky1
									{
										OFFSET 11.11390 0.00000 -6.03719
										CHANNELS 3 Zrotation Xrotation Yrotation
										JOINT LeftHandPinky2
										{
											OFFSET 4.52789 0.00000 0.00000
											CHANNELS 3 Zrotation Xrotation Yrotation
											JOINT LeftHandPinky3
											{
												OFFSET 2.46976 0.00000 0.00000
												CHANNELS 3 Zrotation Xrotation Yrotation
												End site
												{
													OFFSET 0.00000 0.00000 0.00000
												}
											}
										}
									}
								}
							}
						}
					}
					JOINT pCube4
					{
						OFFSET 0.00000 10.91090 1.10792
						CHANNELS 3 Zrotation Xrotation Yrotation
						End site
						{
							OFFSET 0.00000 0.00000 0.00000
						}
					}
				}
			}
		}
	}
	JOINT RightUpLeg
	{
		OFFSET -9.98441 0.00000 0.00000
		CHANNELS 3 Zrotation Xrotation Yrotation
		JOINT RightLeg
		{
			OFFSET 0.00000 -42.11790 0.00000
			CHANNELS 3 Zrotation Xrotation Yrotation
			JOINT RightFoot
			{
				OFFSET 0.00000 -45.00020 -0.00001
				CHANNELS 3 Zrotation Xrotation Yrotation
				JOINT RightForeFoot
				{
					OFFSET 0.00000 -3.74820 0.00000
					CHANNELS 3 Zrotation Xrotation Yrotation
					JOINT RightToeBase
					{
						OFFSET 0.00000 0.06325 14.43120
						CHANNELS 3 Zrotation Xrotation Yrotation
						End site
						{
							OFFSET 0.00000 0.00000 0.00000
						}
					}
				}
			}
		}
	}
	JOINT LeftUpLeg
	{
		OFFSET 9.98441 0.00000 0.00000
		CHANNELS 3 Zrotation Xrotation Yrotation
		JOINT LeftLeg
		{
			OFFSET 0.00000 -42.11800 0.00000
			CHANNELS 3 Zrotation Xrotation Yrotation
			JOINT LeftFoot
			{
				OFFSET 0.00000 -45.00070 0.00000
				CHANNELS 3 Zrotation Xrotation Yrotation
				JOINT LeftForeFoot
				{
					OFFSET 0.00000 -3.74824 0.00000
					CHANNELS 3 Zrotation Xrotation Yrotation
					JOINT LeftToeBase
					{
						OFFSET 0.00000 0.06325 14.43110
						CHANNELS 3 Zrotation Xrotation Yrotation
						End site
						{
							OFFSET 0.00000 0.00000 0.00000
						}
					}
				}
			}
		}
	}
}
MOTION
Frames: 4
Frame Time: 0.050000
-0.04876195524861982 0.02901448210600079 -0.004585852105432706 -0.042363590185022997 0.027692792466881756 -0.004551927902684152 -2.6300020839314895 0.13598300511194206 -0.8244736838717641 -0.8440007509021221 3.564628459274392 0.337412631347891 -1.38644662811908 -2.4541514541535334 -1.0462929357905921 0.09444145033830106 -0.09179706160977003 -0.8464377405339077 1.1734418018304922 14.809910575801199 -2.95651019028651 0.40571068255962217 0.6971283809747993 -8.23809366540691 1.3855094746940184 -14.25181482330904 -0.6209163349873197 -8.712055251424898 2.902073338347044 -15.381567511015433 72.5128169109558 -17.668535097352095 21.616457225797923 38.52230611237658 9.142583805055004 97.56452687821128 16.889869728525902 -0.5252385983214151 -2.545454082559024 4.564800918487646 -0.14139826574246966 -1.6077247203675933 0.01573473195048735 -0.038857672979503405 -56.23301580127919 0.02054264574026366 0.018266785369522774 -56.19351797841492 -38.770197995400814 0.0019616513812234877 -0.04900986282869439 -0.04421868401894104 0.005889646122781219 -0.03393897882936539 0.00775822999639795 -0.038038888799828495 0.00880448440467851 -36.70426238370721 0.0027642519110432136 0.036246156878085814 0.0020503233322810683 -0.023765133652651753 0.005122989235638165 0.041663049426460895 -0.0118435197386049 -0.029351064572860783 -19.74638582105101 0.01091698867303522 0.019024843759758804 0.032614346475759254 -0.037090717927242195 0.006842078857391804 0.016078913275450045 0.011578088976689651 0.03813368224436277 24.089106370212203 -0.012038052595026005 0.026232606304054776 28.847590952145715 0.013198469102033138 0.003158895288268256 28.869407680851356 0.023132245950660105 0.03788938068778207 7.3423544608529445 1.8436856899898384 12.800300391062725 -71.93955462198136 9.247554206159075 -13.43881386953431 -50.61164739089626 13.301646929401546 -105.10535083687907 -5.933824121279232 0.9355001554350751 -3.875329568506752 -0.49809043217213833 0.10873857677370749 -8.14051085764968 -0.013616501139026021 -0.019712505374705258 44.60842074543308 0.0261890724405951 -0.01524127838999128 44.57274773628424 12.459509675751171 -0.038796825727171955 0.0065260612445337835 -0.022867967646225708 0.0028936933531070364 0.01308400464563933 -0.03528943866617609 0.010094195352597871 0.035545111930685436 11.118485256627597 -0.0003913747514974459 0.009977846297739644 0.011124914022942994 0.02459311463655887 -0.02863166610811059 -0.0050600970223929394 0.024301712771620337 0.0060040728419155035 4.750555463849199 0.03894196973787482 0.005316885267547559 0.02838861391367187 -0.03518999137646674 -0.012997122679905639 -0.00812809145428206 -0.029314548085742652 0.012826212108946454 -5.6156835372092155 0.04094391153658411 -0.016937810898535688 -6.719020377387391 0.04884113674275939 0.005454975079326422 -6.696945403863542 0.022209320701427344 -0.037517480473780285 -0.0481062300002283 -0.027960132656171383 0.022545276574472552 8.075173083211226 3.4695595717718337 -19.212870265360188 -0.002023425906667933 10.402609606978304 -0.004064993140130355 -5.655507761948807 -15.686168126474566 3.201359956919495 0.020041654497964478 -0.017051653877188513 -0.029896200566499574 -0.011312677905957838 4.712072013176773 -0.0014623589337024838 12.480103443180091 -8.260891396013971 6.931254693521921 0.0019238052959785706 46.35836057819814 -0.040744680499439904 -4.301428265718911 -14.77958072550648 -3.788047857302439 0.02211615573896865 -0.022260156266384428 -0.02310543630163484 -0.02693497259432448 -10.74722668221929 0.02800113999046105 
-0.013526201844680483 -0.02838337554222853 -0.01369251641415483 0.0038477054500713815 0.002453610181611452 -0.04191265948538122 -2.7437802629279173 0.06631238613984888 -0.812649757028656 -0.8959594641834859 3.612584788762522 0.3730463179863867 -1.4800660412107622 -2.4806030303712707 -0.8775255028141898 0.07683414653343386 -0.12223079820625304 -0.7956846756462023 1.195278986141881 15.170010448085977 -2.963196281088049 0.4032554649117059 0.7710683467163987 -8.250577117024275 1.3807818633116704 -14.119607140478813 -0.6553692864765379 -9.381167859741828 2.985442446132943 -15.393162894499534 71.36575127766248 -21.10862382347452 25.6991383344558 36.827890943292374 7.816242825442578 98.55303576380334 16.21401668469349 -0.6018985039278447 -1.634941408840067 4.569269757163328 -0.11409141491195934 -1.6201358047108656 0.00012855494947805284 0.03972642422608881 -56.25143349464223 -0.025573833043550726 0.03880056664897557 -56.223427520772965 -38.78718246493248 0.0006299643067121016 0.016579409758641025 -0.04771591579572651 -0.04323730975306747 0.009910667054792767 -0.0026133035602541785 0.029994115118650973 -0.026172034330380862 -36.695263542536736 -0.03374895180867628 -0.008318638818246439 -0.048457496358045325 9.675622046560255e-05 -0.03134510497433566 -0.04855556929817273 0.005397839928243096 -0.022322492598728313 -19.72100163254514 -0.005387927695463969 -0.04677293150205435 0.026127897010574122 0.0033815511815857725 0.02389462486636055 0.028205542499157694 -0.03285780408159269 0.012029311207132794 24.045096685338315 -0.012838407193807693 -0.02231476900841168 28.886129681359584 -0.010167385893523317 -0.013364601691087807 28.887688689396587 -0.009017605462016923 -0.03126507331716734 7.543429125398146 1.9222295716748907 12.778197889838614 -70.92330073568786 8.924067219769976 -14.516401605451753 -44.72825008468433 11.205318142859673 -103.80604295068434 -3.5912118077008115 1.763195721733393 -4.849012020969939 -0.4830631394134236 0.06051446583481294 -8.146970830220331 -0.02126273758476021 0.004333253638759354 44.55710665833769 -0.0035083925077885867 0.028627444479687646 44.614091515591866 12.451681492599652 0.026118550096300416 0.048138181365690244 -0.038424345229670843 -0.0452072560029715 -0.0022134498856281656 -0.02402032274809159 -0.019584079324421386 0.01702421789514189 11.095384377484045 -0.027376987112957666 -0.003836452534220978 0.029647451549770137 -0.01773571931985288 0.04801308775046484 -0.03446123429372237 0.0023728488568025377 -0.012266725607320709 4.748677210265365 -0.006651942929384287 -0.02075530575199383 -0.03982860077805837 0.0032011036201186824 0.01221200822508694 -0.01718758985313783 -0.022381067404073092 0.016022211167869786 -5.647904607020455 -0.033345936825238884 0.007640268461685582 -6.739106209787273 0.03294777862030343 -0.016950543721367606 -6.676495889382736 -0.025611892962238394 0.03889480711878815 -0.004034803781360213 0.008668482465994956 -0.039639112925946525 8.075813628235613 3.473135524240149 -19.18905547184329 0.018088188572228894 10.358647064433224 -0.007094726459104191 -5.645418689248585 -15.638247809439356 3.2132959407436843 0.04531701835483298 0.008342954853919296 0.015903912252865308 -0.0437829726871403 4.70180281045482 -0.0073084684147858864 12.458329726780706 -8.282765652370724 6.891704159122218 -0.029472272111230737 46.41339754717948 -0.0460790925799615 -4.301935999675004 -14.708977225452005 -3.7873998339574406 0.022596418954756614 -0.023845487518236338 0.011367841706827265 -0.047149585856417604 -10.707507558350956 0.038532078010523385 
0.03606456925583051 0.028352000180556197 -0.03964263529857763 0.02343672699870519 0.03125932651875289 -0.00015870506209799502 -2.900136250657895 -0.060579924881216086 -0.8060546152456036 -0.8609125458238178 3.6053505559462944 0.3266751083413317 -1.483881764425425 -2.544436165182167 -0.7124580828778541 0.002816521843218678 -0.13874600473729817 -0.7974341695069249 1.280885268066923 15.425747460887644 -2.975541145695821 0.3848406290737111 0.8207723214885068 -8.370585791817975 1.4526110859682861 -14.096206333051258 -0.6921868034756823 -9.978027095706471 3.154516653698564 -15.31604188530443 69.53762221218095 -23.84265710504383 29.88728785673738 35.31395301257877 6.6103234878168085 99.1768525988076 15.71174756660521 -0.5409885282199229 -0.9785662027128874 4.575485982700961 -0.14720062451863306 -1.5568197677866578 0.037391469389338655 -0.02201650322562004 -56.252093131286166 0.009609186597345576 -0.011910414753188353 -56.261977015516045 -38.765095561979656 0.003670023778001969 0.009070642462145902 -0.004743374826829489 -0.04004090059586516 0.006782255572425854 0.007806146844634068 0.002483918330581803 -0.04786141421528426 -36.671775275474126 -0.036305619843193686 0.029864788498495363 0.04795566974283567 -0.043359286738262275 0.02128346069481746 -0.0061824208252635226 -0.02934970833429066 -0.01918876172895987 -19.766737663126104 0.019178049818501824 -0.0008109475691873938 0.030890125043983772 -0.024751010057002084 -0.01428519408442526 -0.01946525949031307 0.00909505416369694 -0.010924197389170234 24.09404492340872 0.038143601918768096 -0.006660996944196796 28.869887056253642 -0.02543189101174489 -0.011112961872158843 28.847686139745427 0.008078922608246598 -0.03847137091352136 7.647733772929968 1.8887944009037072 12.676848422036024 -69.69020168523542 8.936329510255165 -15.505669946511194 -39.13281494047648 8.82319702295828 -102.5338170268993 -1.4685340753320915 2.4459672282440317 -5.787269363842811 -0.462874974994025 0.07749381355894051 -8.107746834066429 -0.03009655309446261 0.015162678642399861 44.57003031753054 -0.04608755478424725 0.02554989833125862 44.55749747988944 12.431849919483778 0.0013519570051083241 -0.006753748040353744 -0.02224549289493878 0.02374821846779567 0.04584924587137749 -0.03975127405131976 -0.009643917133964466 0.030533211554729482 11.10853430759968 0.01481039312420966 -1.2584375209192072e-05 0.049034799834946866 -0.016894598936173625 0.007958954849029544 -0.0010390563913625997 -0.007500897264959513 -0.03612208386111628 4.802596649043961 -0.003501194750804519 0.017491466198641854 -0.012745651930991642 0.02121775277748603 0.04371189667724848 -0.030881862355221362 -0.003122543810822181 -0.04391970657311031 -5.644868700967673 0.007846686421833005 0.04252991281881892 -6.725315492465875 0.007583604075973256 -0.004645765686003659 -6.707789044297711 0.0476467763882538 0.00470094334370638 0.020415037497306415 -0.036083423375456516 -0.03567038122556341 8.088686144739599 3.4592687257458596 -19.199295870834767 -0.04235123286776742 10.357442422861233 0.020767005997192077 -5.642240254392609 -15.634418644108026 3.2347671757213967 -0.04897779460228341 0.030083988152063385 0.0320491124778895 -0.02515049608466125 4.728039822167153 0.022774097571352535 12.495920111134886 -8.20447604215052 6.863055436704977 -0.030322616962438223 46.37297856065225 0.03986340474567873 -4.305239139082705 -14.77834526272068 -3.85900957747467 0.027808416329425597 -0.010699486241609258 -0.011875145255237016 -0.02514946613398201 -10.748764058677693 -0.010267749637774395 
-0.01869851262126715 0.0298323743386486 -0.007559489780627326 -0.036491032948133655 -0.003525698749536587 -0.024414735836522063 -2.968987518990361 -0.22032788216380672 -0.761231792776171 -0.9479422980803419 3.551618888747619 0.4136274883667489 -1.5612036737550914 -2.6049910003195884 -0.621804922880223 -0.02532617896319387 -0.18353640659042456 -0.8025964314354055 1.3856037579451501 15.574601498755346 -2.9286018950551362 0.3924483263423555 0.8840649758390097 -8.40393575450642 1.5059689181621687 -13.98890386836189 -0.6972480855976183 -10.49445246087578 3.2413861387803284 -15.114737128268278 67.44170636934685 -25.01863351860939 34.077388406638114 32.113776626465835 5.083964141658791 99.96062019599186 14.960270626833266 -0.5910524624743952 -0.42347509191611654 4.548348366078667 -0.1609866524647452 -1.5682601038353758 0.0465316026308976 0.035798590189653215 -56.19434862976658 0.0011530776443649843 -0.04751391830362539 -56.23318006926195 -38.740234051996445 0.01664610856146159 -0.0319882770389666 -0.0050826342204209765 0.02886522431599968 -0.014453270664311832 -0.04659312635529546 0.005884175073901541 0.03411827481939788 -36.67434196549373 -0.04210511524490622 -0.03669874547096894 -0.004588702726775879 0.03009774083729632 -0.042096461007814306 0.04026253927067166 -0.042892943136278144 -0.017362278787793804 -19.80536331853773 -0.03459456439871161 0.0326156102376971 0.03648166561894602 0.002459679519105967 -0.018423033002931122 0.023571745732513274 0.04342079907963291 -0.01667141305899606 24.07456514673176 -0.0026195997381861366 -0.02012437820933387 28.852736375599804 0.017780926890066974 0.046352091736702974 28.904766062086807 -0.0055657144531219855 -0.004475393505547664 7.806190305515727 1.8804713574436296 12.697427397156309 -68.3478456242772 9.18433514526737 -16.932141084696113 -32.63034457070551 5.764811328262566 -101.39294098056978 0.7038691462714213 2.8377547088579926 -6.268484209716328 -0.44715770801904253 0.04517970126826506 -8.11359770461776 0.024501169500763777 -0.037741376158905215 44.59114295058745 0.043543030162193186 -0.0012386376625827316 44.612967001600474 12.429977197126881 -0.007948318758876536 0.011159776295583264 0.01733958022309933 0.027285123163346754 0.019852172092971975 -0.011315111631077127 0.005910974987037865 -0.022081029647464816 11.105029121115528 -0.04359009811889616 0.0035929052956566866 -0.02117346113171099 0.018278824791340804 0.02370867835582567 0.004612727758707421 0.012013214820966291 0.03248794803171941 4.778898741477021 0.03192073638762449 0.010577596448238923 0.045842853299403276 0.021041728631018147 -0.04881619832583594 0.009537713517054479 0.04319926046327705 -0.003278228150793135 -5.560081602231279 -0.007356026375272563 0.00045359778815943895 -6.692957693280651 0.017430968920444673 0.004335483114969288 -6.7452818132707195 0.023224166567278798 -0.030356968718314812 -0.023150331481769027 -0.0018352744574112363 -0.02354551253986206 8.07865235560724 3.4965921867773693 -19.18975438875861 0.028674775158521827 10.382355504502586 0.04840529214979829 -5.636546050412654 -15.655482845976206 3.1826173114840985 0.04461499390119092 0.028770334592081465 0.03346106074943482 0.014349084362814223 4.681328663756797 -0.02142786618720259 12.48830249675258 -8.251822818413409 6.894788114937812 0.02377541741450106 46.37932242594546 0.04521816591424027 -4.338301268020598 -14.754239412870046 -3.812960433120768 0.008676892674679814 -0.0016616934305109807 0.03989323695068383 0.028433482373485554 -10.71152289410709 -0.0247604748637191 
